# xmcd CD database file
#
# Track frame offsets:
#	150
#	22475
#	49670
#	74482
#	96492
#	123740
#	143957
#	169252
#	191637
#	212105
#	233470
#
# Disc length: 3379 seconds
#
# Revision: 1
# Processed by: cddbd v1.5.2PL0 Copyright (c) Steve Scherf et al.
# Submitted via: CDex 1.70beta2
#
DISCID=ad0d310b
DTITLE=岸ミツアキ - Swingin' Always
DYEAR=2005
DGENRE=Jazz
TTITLE0=I'll See You in My Dreams
TTITLE1=I Wish You Love
TTITLE2=Nature Boy
TTITLE3=Sunday,Monday,or Always
TTITLE4=I Love Paris
TTITLE5=Gee Baby,Ain't I Good To You
TTITLE6=A Flooded Road
TTITLE7=All By Myself
TTITLE8=Undecided
TTITLE9=I've Got the World on a String
TTITLE10=(I Don't Stand)A Ghost Of a Chance(with You)
EXTD=YEAR: 2005
EXTT0=
EXTT1=
EXTT2=
EXTT3=
EXTT4=
EXTT5=
EXTT6=
EXTT7=
EXTT8=
EXTT9=
EXTT10=
PLAYORDER=
